<?xml version="1.0" encoding="utf-8"?>
<!-- Generator: Adobe Illustrator 23.0.3, SVG Export Plug-In . SVG Version: 6.00 Build 0)  -->
<svg version="1.1" xmlns="http://www.w3.org/2000/svg" xmlns:xlink="http://www.w3.org/1999/xlink" x="0px" y="0px"
	 viewBox="0 0 600 1200" style="enable-background:new 0 0 600 1200;" xml:space="preserve">
<style type="text/css">
	.st0{fill:#B2CAD4;}
	.st1{fill:none;stroke:#FFFFFF;stroke-opacity:0.2;}
	.st2{font-family:'Helvetica';}
	.st3{font-size:12px;}
	.st4{fill:none;stroke:#27596E;stroke-width:24.01;}
	.st5{fill:none;stroke:#27596E;stroke-width:17.64;}
	.st6{fill:none;stroke:#27596E;stroke-width:12.25;}
	.st7{fill:none;stroke:#27596E;stroke-width:7.84;}
	.st8{fill:none;stroke:#27596E;stroke-width:4.41;}
	.st9{fill:none;stroke:#27596E;stroke-width:1.96;}
	.st10{fill:none;stroke:#27596E;stroke-width:0.49;}
	.st11{fill:none;stroke:#6A96A8;stroke-width:12.25;}
	.st12{fill:none;stroke:#6A96A8;stroke-width:2;}
	.st13{fill:none;stroke:#27596E;stroke-width:2;}
	.st14{fill:none;}
	.st15{fill:none;stroke:#6A96A8;stroke-width:17.64;}
	.st16{fill:none;stroke:#6A96A8;stroke-width:24.01;}
	.st17{fill:none;stroke:#6A96A8;stroke-width:39.69;}
	.st18{fill:none;stroke:#6A96A8;stroke-width:31.36;}
	.st19{font-family:'ArialMT';}
	.st20{font-size:10px;}
	.st21{font-family:'Arial-BoldMT';}
	.st22{font-size:16px;}
	.st23{fill:none;stroke:#000000;stroke-width:0.25;stroke-miterlimit:10;}
	.st24{fill:#6A96A8;}
	.st25{fill:#27596E;}
</style>
<g id="Laag_1">
	<rect class="st0" width="600" height="1200"/>
	<g id="timeLine">
		<line class="st1" x1="70" y1="400" x2="570" y2="400"/>
		<line class="st1" x1="70" y1="370" x2="570" y2="370"/>
		<line class="st1" x1="70" y1="340" x2="570" y2="340"/>
		<line class="st1" x1="70" y1="310" x2="570" y2="310"/>
		<line class="st1" x1="70" y1="280" x2="570" y2="280"/>
		<line class="st1" x1="70" y1="250" x2="570" y2="250"/>
		<line class="st1" x1="70" y1="220" x2="570" y2="220"/>
		<line class="st1" x1="70" y1="190" x2="570" y2="190"/>
		<line class="st1" x1="70" y1="160" x2="570" y2="160"/>
		<line class="st1" x1="70" y1="130" x2="570" y2="130"/>
		<line class="st1" x1="70" y1="100" x2="570" y2="100"/>
		<text transform="matrix(0.7071 -0.7071 0.7071 0.7071 62.2636 460.3636)" class="st2 st3">KB kranten</text>
		<line class="st4" x1="100" y1="400" x2="100" y2="168.4"/>
		<text transform="matrix(0.7071 -0.7071 0.7071 0.7071 101.8891 445.7381)" class="st2 st3">SoNaR</text>
		<line class="st5" x1="125" y1="400" x2="125" y2="213.7"/>
		<text transform="matrix(0.7071 -0.7071 0.7071 0.7071 131.6084 441.0193)" class="st2 st3">DBNL</text>
		<line class="st6" x1="150" y1="400" x2="150" y2="239.6"/>
		<text transform="matrix(0.7071 -0.7071 0.7071 0.7071 86.323 511.3045)" class="st2 st3">Staten-Generaal Digitaal</text>
		<line class="st6" x1="175" y1="400" x2="175" y2="244.8"/>
		<text transform="matrix(0.7071 -0.7071 0.7071 0.7071 136.7871 485.8401)" class="st2 st3">Geleerdenbrieven</text>
		<line class="st7" x1="200" y1="400" x2="200" y2="273.9"/>
		<text transform="matrix(0.7071 -0.7071 0.7071 0.7071 142.4714 505.156)" class="st2 st3">Briefwisseling Heinsius</text>
		<line class="st7" x1="225" y1="400" x2="225" y2="274.3"/>
		<text transform="matrix(0.7071 -0.7071 0.7071 0.7071 230.1955 442.4319)" class="st2 st3">EDBO</text>
		<line class="st7" x1="250" y1="400" x2="250" y2="275.7"/>
		<text transform="matrix(0.7071 -0.7071 0.7071 0.7071 259.9187 437.7088)" class="st2 st3">CRM</text>
		<line class="st8" x1="275" y1="400" x2="275" y2="298.6"/>
		<text transform="matrix(0.7071 -0.7071 0.7071 0.7071 237.2595 485.368)" class="st2 st3">Gekaapte brieven</text>
		<line class="st8" x1="300" y1="400" x2="300" y2="304.1"/>
		<text transform="matrix(0.7071 -0.7071 0.7071 0.7071 236.3271 511.3001)" class="st2 st3">Correspondentie Clusius</text>
		<line class="st8" x1="325" y1="400" x2="325" y2="306.6"/>
		<text transform="matrix(0.7071 -0.7071 0.7071 0.7071 285.5276 487.0999)" class="st2 st3">Brieven Van Gogh</text>
		<line class="st9" x1="350" y1="400" x2="350" y2="322.1"/>
		<text transform="matrix(0.7071 -0.7071 0.7071 0.7071 227.3735 570.2537)" class="st2 st3">Beschrijyvinge Oostindische Compagnie</text>
		<line class="st9" x1="375" y1="400" x2="375" y2="324.6"/>
		<text transform="matrix(0.7071 -0.7071 0.7071 0.7071 300.936 521.6912)" class="st2 st3">Notulen Staten van Holland</text>
		<line class="st9" x1="400" y1="400" x2="400" y2="336.4"/>
		<text transform="matrix(0.7071 -0.7071 0.7071 0.7071 361.7995 485.8279)" class="st2 st3">Acta Zuid-Holland</text>
		<line class="st10" x1="425" y1="400" x2="425" y2="342.4"/>
		<text transform="matrix(0.7071 -0.7071 0.7071 0.7071 380.1953 492.4319)" class="st2 st3">Dagboek De Clercq</text>
		<line class="st10" x1="450" y1="400" x2="450" y2="353.2"/>
		<text transform="matrix(0.7071 -0.7071 0.7071 0.7071 388.1999 509.4275)" class="st2 st3">Dagboeken De Beaufort</text>
		<line class="st10" x1="475" y1="400" x2="475" y2="356.5"/>
		<text transform="matrix(0.7071 -0.7071 0.7071 0.7071 485.0595 437.5677)" class="st2 st3">Varia</text>
		<line class="st10" x1="500" y1="400" x2="500" y2="365.8"/>
		<line class="st1" x1="70" y1="1000" x2="570" y2="1000"/>
		<line class="st1" x1="70" y1="970" x2="570" y2="970"/>
		<line class="st1" x1="70" y1="940" x2="570" y2="940"/>
		<line class="st1" x1="70" y1="910" x2="570" y2="910"/>
		<line class="st1" x1="70" y1="880" x2="570" y2="880"/>
		<line class="st1" x1="70" y1="850" x2="570" y2="850"/>
		<line class="st1" x1="70" y1="820" x2="570" y2="820"/>
		<line class="st1" x1="70" y1="790" x2="570" y2="790"/>
		<line class="st1" x1="70" y1="760" x2="570" y2="760"/>
		<line class="st1" x1="70" y1="730" x2="570" y2="730"/>
		<line class="st1" x1="70" y1="700" x2="570" y2="700"/>
		<text transform="matrix(1 0 0 1 100 1016)" class="st2 st3">X</text>
		<line class="st11" x1="100" y1="1000" x2="100" y2="846.8"/>
		<line class="st9" x1="110" y1="1000" x2="110" y2="934.2"/>
		<text transform="matrix(1 0 0 1 143 1016)" class="st2 st3">12</text>
		<line class="st12" x1="143" y1="1000" x2="143" y2="990"/>
		<line class="st13" x1="153" y1="1000" x2="153" y2="990"/>
		<text transform="matrix(1 0 0 1 186 1016)" class="st2 st3">13</text>
		<line class="st11" x1="186" y1="1000" x2="186" y2="842.7"/>
		<line class="st14" x1="196" y1="1000" x2="196" y2="0"/>
		<text transform="matrix(1 0 0 1 229 1016)" class="st2 st3">14</text>
		<line class="st15" x1="229" y1="1000" x2="229" y2="816.4"/>
		<line class="st8" x1="239" y1="1000" x2="239" y2="898.6"/>
		<text transform="matrix(1 0 0 1 272 1016)" class="st2 st3">15</text>
		<line class="st15" x1="272" y1="1000" x2="272" y2="816.5"/>
		<line class="st13" x1="282" y1="1000" x2="282" y2="990"/>
		<text transform="matrix(1 0 0 1 315 1016)" class="st2 st3">16</text>
		<line class="st16" x1="315" y1="1000" x2="315" y2="786.9"/>
		<line class="st10" x1="325" y1="1000" x2="325" y2="944.2"/>
		<text transform="matrix(1 0 0 1 358 1016)" class="st2 st3">17</text>
		<line class="st16" x1="358" y1="1000" x2="358" y2="770"/>
		<line class="st7" x1="368" y1="1000" x2="368" y2="859.9"/>
		<text transform="matrix(1 0 0 1 401 1016)" class="st2 st3">18</text>
		<line class="st17" x1="401" y1="1000" x2="401" y2="726.8"/>
		<line class="st6" x1="411" y1="1000" x2="411" y2="827.3"/>
		<text transform="matrix(1 0 0 1 444 1016)" class="st2 st3">19</text>
		<line class="st17" x1="444" y1="1000" x2="444" y2="710.3"/>
		<line class="st4" x1="454" y1="1000" x2="454" y2="786.5"/>
		<text transform="matrix(1 0 0 1 487 1016)" class="st2 st3">20</text>
		<line class="st12" x1="487" y1="1000" x2="487" y2="990"/>
		<line class="st4" x1="497" y1="1000" x2="497" y2="781.9"/>
		<text transform="matrix(1 0 0 1 530 1016)" class="st2 st3">21</text>
		<line class="st18" x1="530" y1="1000" x2="530" y2="741"/>
		<line class="st5" x1="540" y1="1000" x2="540" y2="814"/>
	</g>
</g>
<g id="extra">
	<g>
		<text transform="matrix(1 0 0 1 64.4382 400.0002)" class="st19 st20">0</text>
		<text transform="matrix(1 0 0 1 59.3767 370.0002)" class="st19 st20">10</text>
		<text transform="matrix(1 0 0 1 54.3152 340.0002)" class="st19 st20">100</text>
		<text transform="matrix(1 0 0 1 46.9753 310.0002)" class="st19 st20">1.000</text>
		<text transform="matrix(1 0 0 1 41.9138 280.0002)" class="st19 st20">10.000</text>
		<text transform="matrix(1 0 0 1 36.8523 250.0002)" class="st19 st20">100.000</text>
		<text transform="matrix(1 0 0 1 29.5124 220.0002)" class="st19 st20">1.000.000</text>
		<text transform="matrix(1 0 0 1 24.4509 190.0002)" class="st19 st20">10.000.000</text>
		<text transform="matrix(1 0 0 1 19.3894 160.0002)" class="st19 st20">100.000.000</text>
		<text transform="matrix(1 0 0 1 12.0495 130.0002)" class="st19 st20">1.000.000.000</text>
		<text transform="matrix(1 0 0 1 6.988 100.0002)" class="st19 st20">10.000.000.000</text>
	</g>
	<g>
		<text transform="matrix(1 0 0 1 64.4382 1000.7672)" class="st19 st20">0</text>
		<text transform="matrix(1 0 0 1 59.3766 970.7672)" class="st19 st20">10</text>
		<text transform="matrix(1 0 0 1 54.3151 940.7672)" class="st19 st20">100</text>
		<text transform="matrix(1 0 0 1 46.9753 910.7672)" class="st19 st20">1.000</text>
		<text transform="matrix(1 0 0 1 41.9137 880.7672)" class="st19 st20">10.000</text>
		<text transform="matrix(1 0 0 1 36.8522 850.7672)" class="st19 st20">100.000</text>
		<text transform="matrix(1 0 0 1 29.5124 820.7672)" class="st19 st20">1.000.000</text>
		<text transform="matrix(1 0 0 1 24.4509 790.7672)" class="st19 st20">10.000.000</text>
		<text transform="matrix(1 0 0 1 19.3893 760.7672)" class="st19 st20">100.000.000</text>
		<text transform="matrix(1 0 0 1 12.0495 730.7672)" class="st19 st20">1.000.000.000</text>
		<text transform="matrix(1 0 0 1 6.988 700.7672)" class="st19 st20">10.000.000.000</text>
	</g>
	<text transform="matrix(1 0 0 1 70 666.291)" class="st21 st22">Aantal titels en woorden per eeuw</text>
	<text transform="matrix(1 0 0 1 70.0002 70.291)" class="st21 st22">Aantal titels per collectie</text>
	<line class="st23" x1="-6.1" y1="624" x2="607.9" y2="624"/>
	<text transform="matrix(1 0 0 1 367.936 1091.7828)" class="st19 st22">titels</text>
	<text transform="matrix(1 0 0 1 508.5318 1091.7828)" class="st19 st22">woorden</text>
	<rect x="437.5" y="1084.4" class="st24" width="62" height="6.3"/>
	<rect x="296.9" y="1084.4" class="st25" width="62" height="6.3"/>
	<line class="st23" x1="-13.1" y1="1063" x2="600.9" y2="1063"/>
	<text transform="matrix(1 0 0 1 216.0004 1091.7825)" class="st19 st22">Legenda:</text>
	<text transform="matrix(6.123234e-17 -1 1 6.123234e-17 20.4578 400)" class="st25 st19 st3">Antal titels</text>
	<text transform="matrix(6.123234e-17 -1 1 6.123234e-17 20.4575 1003)" class="st25 st19 st3">Antal titels</text>
	<text transform="matrix(1 0 0 1 521.0004 425.3682)" class="st25 st19 st3">Collectie</text>
	<text transform="matrix(1 0 0 1 561.0004 1016)" class="st25 st19 st3">Eeuw</text>
</g>
</svg>
