<?xml version="1.0" encoding="utf-8"?>
<!-- Generator: Adobe Illustrator 23.0.3, SVG Export Plug-In . SVG Version: 6.00 Build 0)  -->
<svg version="1.1" id="Laag_1" xmlns="http://www.w3.org/2000/svg" xmlns:xlink="http://www.w3.org/1999/xlink" x="0px" y="0px"
	 viewBox="0 0 600 1000" style="enable-background:new 0 0 600 1000;" xml:space="preserve">
<style type="text/css">
	.st0{fill:#B2CAD4;}
	.st1{font-family:'Helvetica';}
	.st2{font-size:12px;}
	.st3{fill:none;stroke:#27596E;stroke-width:24.01;}
	.st4{fill:none;stroke:#27596E;stroke-width:17.64;}
	.st5{fill:none;stroke:#27596E;stroke-width:12.25;}
	.st6{fill:none;stroke:#27596E;stroke-width:7.84;}
	.st7{fill:none;stroke:#27596E;stroke-width:4.41;}
	.st8{fill:none;stroke:#27596E;stroke-width:1.96;}
	.st9{fill:none;stroke:#27596E;stroke-width:0.49;}
	.st10{fill:none;stroke:#6A96A8;stroke-width:12.25;}
	.st11{fill:none;stroke:#6A96A8;stroke-width:2;}
	.st12{fill:none;stroke:#27596E;stroke-width:2;}
	.st13{fill:none;}
	.st14{fill:none;stroke:#6A96A8;stroke-width:17.64;}
	.st15{fill:none;stroke:#6A96A8;stroke-width:24.01;}
	.st16{fill:none;stroke:#6A96A8;stroke-width:39.69;}
	.st17{fill:none;stroke:#6A96A8;stroke-width:31.36;}
	.st18{font-family:'ArialMT';}
	.st19{font-size:10px;}
	.st20{font-family:'Arial-BoldMT';}
	.st21{font-size:16px;}
	.st22{fill:none;stroke:#000000;stroke-width:0.25;stroke-miterlimit:10;}
</style>
<polyline class="st0" points="0,0 600,0 600,1000 0,1000 "/>
<g id="timeLine">
	<text transform="matrix(0.7071 -0.7071 0.7071 0.7071 42.2636 390.3636)" class="st1 st2">KB kranten</text>
	<line class="st3" x1="80" y1="330" x2="80" y2="98.4"/>
	<text transform="matrix(0.7071 -0.7071 0.7071 0.7071 81.8891 375.7381)" class="st1 st2">SoNaR</text>
	<line class="st4" x1="105" y1="330" x2="105" y2="143.7"/>
	<text transform="matrix(0.7071 -0.7071 0.7071 0.7071 111.6084 371.0193)" class="st1 st2">DBNL</text>
	<line class="st5" x1="130" y1="330" x2="130" y2="169.6"/>
	<text transform="matrix(0.7071 -0.7071 0.7071 0.7071 66.323 441.3045)" class="st1 st2">Staten-Generaal Digitaal</text>
	<line class="st5" x1="155" y1="330" x2="155" y2="174.8"/>
	<text transform="matrix(0.7071 -0.7071 0.7071 0.7071 116.7871 415.8401)" class="st1 st2">Geleerdenbrieven</text>
	<line class="st6" x1="180" y1="330" x2="180" y2="203.9"/>
	<text transform="matrix(0.7071 -0.7071 0.7071 0.7071 122.4716 435.156)" class="st1 st2">Briefwisseling Heinsius</text>
	<line class="st6" x1="205" y1="330" x2="205" y2="204.3"/>
	<text transform="matrix(0.7071 -0.7071 0.7071 0.7071 210.1955 372.4319)" class="st1 st2">EDBO</text>
	<line class="st6" x1="230" y1="330" x2="230" y2="205.7"/>
	<text transform="matrix(0.7071 -0.7071 0.7071 0.7071 239.9187 367.7088)" class="st1 st2">CRM</text>
	<line class="st7" x1="255" y1="330" x2="255" y2="228.6"/>
	<text transform="matrix(0.7071 -0.7071 0.7071 0.7071 217.2595 415.368)" class="st1 st2">Gekaapte brieven</text>
	<line class="st7" x1="280" y1="330" x2="280" y2="234.1"/>
	<text transform="matrix(0.7071 -0.7071 0.7071 0.7071 216.3271 441.3001)" class="st1 st2">Correspondentie Clusius</text>
	<line class="st7" x1="305" y1="330" x2="305" y2="236.6"/>
	<text transform="matrix(0.7071 -0.7071 0.7071 0.7071 265.5276 417.0999)" class="st1 st2">Brieven Van Gogh</text>
	<line class="st8" x1="330" y1="330" x2="330" y2="252.1"/>
	<text transform="matrix(0.7071 -0.7071 0.7071 0.7071 207.3735 500.2537)" class="st1 st2">Beschrijyvinge Oostindische Compagnie</text>
	<line class="st8" x1="355" y1="330" x2="355" y2="254.6"/>
	<text transform="matrix(0.7071 -0.7071 0.7071 0.7071 280.936 451.6912)" class="st1 st2">Notulen Staten van Holland</text>
	<line class="st8" x1="380" y1="330" x2="380" y2="266.4"/>
	<text transform="matrix(0.7071 -0.7071 0.7071 0.7071 341.7995 415.8279)" class="st1 st2">Acta Zuid-Holland</text>
	<line class="st9" x1="405" y1="330" x2="405" y2="272.4"/>
	<text transform="matrix(0.7071 -0.7071 0.7071 0.7071 360.1953 422.4319)" class="st1 st2">Dagboek De Clercq</text>
	<line class="st9" x1="430" y1="330" x2="430" y2="283.2"/>
	<text transform="matrix(0.7071 -0.7071 0.7071 0.7071 368.1999 439.4275)" class="st1 st2">Dagboeken De Beaufort</text>
	<line class="st9" x1="455" y1="330" x2="455" y2="286.5"/>
	<text transform="matrix(0.7071 -0.7071 0.7071 0.7071 465.0595 367.5677)" class="st1 st2">Varia</text>
	<line class="st9" x1="480" y1="330" x2="480" y2="295.8"/>
	<text transform="matrix(1 0 0 1 80 916)" class="st1 st2">X</text>
	<line class="st10" x1="80" y1="900" x2="80" y2="746.8"/>
	<line class="st8" x1="90" y1="900" x2="90" y2="834.2"/>
	<text transform="matrix(1 0 0 1 123 916)" class="st1 st2">12</text>
	<line class="st11" x1="123" y1="900" x2="123" y2="890"/>
	<line class="st12" x1="133" y1="900" x2="133" y2="890"/>
	<text transform="matrix(1 0 0 1 166 916)" class="st1 st2">13</text>
	<line class="st10" x1="166" y1="900" x2="166" y2="742.7"/>
	<line class="st13" x1="176" y1="900" x2="176" y2="0"/>
	<text transform="matrix(1 0 0 1 209 916)" class="st1 st2">14</text>
	<line class="st14" x1="209" y1="900" x2="209" y2="716.4"/>
	<line class="st7" x1="219" y1="900" x2="219" y2="798.6"/>
	<text transform="matrix(1 0 0 1 252 916)" class="st1 st2">15</text>
	<line class="st14" x1="252" y1="900" x2="252" y2="716.5"/>
	<line class="st12" x1="262" y1="900" x2="262" y2="890"/>
	<text transform="matrix(1 0 0 1 295 916)" class="st1 st2">16</text>
	<line class="st15" x1="295" y1="900" x2="295" y2="686.9"/>
	<line class="st9" x1="305" y1="900" x2="305" y2="844.2"/>
	<text transform="matrix(1 0 0 1 338 916)" class="st1 st2">17</text>
	<line class="st15" x1="338" y1="900" x2="338" y2="670"/>
	<line class="st6" x1="348" y1="900" x2="348" y2="759.9"/>
	<text transform="matrix(1 0 0 1 381 916)" class="st1 st2">19</text>
	<line class="st16" x1="381" y1="900" x2="381" y2="626.8"/>
	<line class="st5" x1="391" y1="900" x2="391" y2="727.3"/>
	<text transform="matrix(1 0 0 1 424 916)" class="st1 st2">19</text>
	<line class="st16" x1="424" y1="900" x2="424" y2="610.3"/>
	<line class="st3" x1="434" y1="900" x2="434" y2="686.5"/>
	<text transform="matrix(1 0 0 1 467 916)" class="st1 st2">20</text>
	<line class="st11" x1="467" y1="900" x2="467" y2="890"/>
	<line class="st3" x1="477" y1="900" x2="477" y2="681.9"/>
	<line class="st13" x1="50" y1="900" x2="550" y2="900"/>
	<line class="st13" x1="50" y1="870" x2="550" y2="870"/>
	<line class="st13" x1="50" y1="840" x2="550" y2="840"/>
	<line class="st13" x1="50" y1="810" x2="550" y2="810"/>
	<line class="st13" x1="50" y1="780" x2="550" y2="780"/>
	<line class="st13" x1="50" y1="750" x2="550" y2="750"/>
	<line class="st13" x1="50" y1="720" x2="550" y2="720"/>
	<line class="st13" x1="50" y1="660" x2="550" y2="660"/>
	<line class="st13" x1="50" y1="630" x2="550" y2="630"/>
	<line class="st13" x1="50" y1="600" x2="550" y2="600"/>
	<text transform="matrix(1 0 0 1 510 916)" class="st1 st2">21</text>
	<line class="st17" x1="510" y1="900" x2="510" y2="641"/>
	<line class="st4" x1="520" y1="900" x2="520" y2="714"/>
</g>
<g id="Extra">
	<g>
		<text transform="matrix(1 0 0 1 60.7614 900.0004)" class="st18 st19">0</text>
		<text transform="matrix(1 0 0 1 55.6999 870.0004)" class="st18 st19">10</text>
		<text transform="matrix(1 0 0 1 50.6384 840.0004)" class="st18 st19">100</text>
		<text transform="matrix(1 0 0 1 43.2985 810.0004)" class="st18 st19">1.000</text>
		<text transform="matrix(1 0 0 1 38.237 780.0004)" class="st18 st19">10.000</text>
		<text transform="matrix(1 0 0 1 33.1755 750.0004)" class="st18 st19">100.000</text>
		<text transform="matrix(1 0 0 1 25.8357 720.0004)" class="st18 st19">1.000.000</text>
		<text transform="matrix(1 0 0 1 20.7741 690.0004)" class="st18 st19">10.000.000</text>
		<text transform="matrix(1 0 0 1 15.7126 660.0004)" class="st18 st19">100.000.000</text>
		<text transform="matrix(1 0 0 1 8.3728 630.0004)" class="st18 st19">1.000.000.000</text>
		<text transform="matrix(1 0 0 1 3.3112 600.0004)" class="st18 st19">10.000.000.000</text>
	</g>
	<text transform="matrix(1 0 0 1 66.323 576)" class="st20 st21">Titels over eeuwen</text>
	<g>
		<text transform="matrix(1 0 0 1 60.7614 330.0004)" class="st18 st19">0</text>
		<text transform="matrix(1 0 0 1 55.6999 300.0004)" class="st18 st19">10</text>
		<text transform="matrix(1 0 0 1 50.6384 270.0004)" class="st18 st19">100</text>
		<text transform="matrix(1 0 0 1 43.2986 240.0004)" class="st18 st19">1.000</text>
		<text transform="matrix(1 0 0 1 38.237 210.0004)" class="st18 st19">10.000</text>
		<text transform="matrix(1 0 0 1 33.1755 180.0004)" class="st18 st19">100.000</text>
		<text transform="matrix(1 0 0 1 25.8357 150.0004)" class="st18 st19">1.000.000</text>
		<text transform="matrix(1 0 0 1 20.7741 120.0004)" class="st18 st19">10.000.000</text>
		<text transform="matrix(1 0 0 1 15.7126 90.0004)" class="st18 st19">100.000.000</text>
		<text transform="matrix(1 0 0 1 8.3728 60.0004)" class="st18 st19">1.000.000.000</text>
		<text transform="matrix(1 0 0 1 3.3112 30.0004)" class="st18 st19">10.000.000.000</text>
	</g>
	<line class="st22" x1="-7" y1="530" x2="607" y2="530"/>
	<text transform="matrix(1 0 0 1 66.3232 18)" class="st20 st21">Titels per collectie</text>
</g>
</svg>
