<svg version="1.1" height="1200" width="600">
<style media="screen">
  .bg {
    fill: #B2CAD4;

  }
  .txt {
    font: 12px sans-serif;
    color: rgb(45, 45, 45);
  }

  .timeLineLine {
  }

  .lineTitle {
    stroke:#27596e;
  }
  .lineWord {

    stroke:#6a96a8;
  }

  .thinLine {
    stroke:#ffffff;
  }

</style>



      <rect width="100%" height="100%" class="bg"></rect>
      <g id="timeLine">123<line x1="70" y1="400" x2="570" y2="400" class="thinLine" stroke-opacity="0.2"></line><line x1="70" y1="370" x2="570" y2="370" class="thinLine" stroke-opacity="0.2"></line><line x1="70" y1="340" x2="570" y2="340" class="thinLine" stroke-opacity="0.2"></line><line x1="70" y1="310" x2="570" y2="310" class="thinLine" stroke-opacity="0.2"></line><line x1="70" y1="280" x2="570" y2="280" class="thinLine" stroke-opacity="0.2"></line><line x1="70" y1="250" x2="570" y2="250" class="thinLine" stroke-opacity="0.2"></line><line x1="70" y1="220" x2="570" y2="220" class="thinLine" stroke-opacity="0.2"></line><line x1="70" y1="190" x2="570" y2="190" class="thinLine" stroke-opacity="0.2"></line><line x1="70" y1="160" x2="570" y2="160" class="thinLine" stroke-opacity="0.2"></line><line x1="70" y1="130" x2="570" y2="130" class="thinLine" stroke-opacity="0.2"></line><line x1="70" y1="100" x2="570" y2="100" class="thinLine" stroke-opacity="0.2"></line><text x="90" y="416" font-family="sans-serif" class="txt" text-anchor="end" dominant-baseline="central" transform="rotate(-45, 100, 400)">KB kranten</text><line x1="100" y1="400" x2="100" y2="168.3779539" class="timeLineLine lineTitle" stroke-width="24.009999999999994"></line><text x="115" y="416" font-family="sans-serif" class="txt" text-anchor="end" dominant-baseline="central" transform="rotate(-45, 125, 400)">SoNaR</text><line x1="125" y1="400" x2="125" y2="213.670966" class="timeLineLine lineTitle" stroke-width="17.639999999999993"></line><text x="140" y="416" font-family="sans-serif" class="txt" text-anchor="end" dominant-baseline="central" transform="rotate(-45, 150, 400)">DBNL</text><line x1="150" y1="400" x2="150" y2="239.6359" class="timeLineLine lineTitle" stroke-width="12.25"></line><text x="165" y="416" font-family="sans-serif" class="txt" text-anchor="end" dominant-baseline="central" transform="rotate(-45, 175, 400)">Staten-Generaal Digitaal</text><line x1="175" y1="400" x2="175" y2="244.83919" class="timeLineLine lineTitle" stroke-width="12.25"></line><text x="190" y="416" font-family="sans-serif" class="txt" text-anchor="end" dominant-baseline="central" transform="rotate(-45, 200, 400)">Geleerdenbrieven</text><line x1="200" y1="400" x2="200" y2="273.9211" class="timeLineLine lineTitle" stroke-width="7.839999999999999"></line><text x="215" y="416" font-family="sans-serif" class="txt" text-anchor="end" dominant-baseline="central" transform="rotate(-45, 225, 400)">Briefwisseling Heinsius</text><line x1="225" y1="400" x2="225" y2="274.3162" class="timeLineLine lineTitle" stroke-width="7.839999999999999"></line><text x="240" y="416" font-family="sans-serif" class="txt" text-anchor="end" dominant-baseline="central" transform="rotate(-45, 250, 400)">EDBO</text><line x1="250" y1="400" x2="250" y2="275.6989" class="timeLineLine lineTitle" stroke-width="7.839999999999999"></line><text x="265" y="416" font-family="sans-serif" class="txt" text-anchor="end" dominant-baseline="central" transform="rotate(-45, 275, 400)">CRM</text><line x1="275" y1="400" x2="275" y2="298.582" class="timeLineLine lineTitle" stroke-width="4.409999999999998"></line><text x="290" y="416" font-family="sans-serif" class="txt" text-anchor="end" dominant-baseline="central" transform="rotate(-45, 300, 400)">Gekaapte brieven</text><line x1="300" y1="400" x2="300" y2="304.147" class="timeLineLine lineTitle" stroke-width="4.409999999999998"></line><text x="315" y="416" font-family="sans-serif" class="txt" text-anchor="end" dominant-baseline="central" transform="rotate(-45, 325, 400)">Correspondentie Clusius</text><line x1="325" y1="400" x2="325" y2="306.55899999999997" class="timeLineLine lineTitle" stroke-width="4.409999999999998"></line><text x="340" y="416" font-family="sans-serif" class="txt" text-anchor="end" dominant-baseline="central" transform="rotate(-45, 350, 400)">Brieven Van Gogh</text><line x1="350" y1="400" x2="350" y2="322.12" class="timeLineLine lineTitle" stroke-width="1.9599999999999997"></line><text x="365" y="416" font-family="sans-serif" class="txt" text-anchor="end" dominant-baseline="central" transform="rotate(-45, 375, 400)">Beschrijyvinge Oostindische Compagnie</text><line x1="375" y1="400" x2="375" y2="324.61" class="timeLineLine lineTitle" stroke-width="1.9599999999999997"></line><text x="390" y="416" font-family="sans-serif" class="txt" text-anchor="end" dominant-baseline="central" transform="rotate(-45, 400, 400)">Notulen Staten van Holland</text><line x1="400" y1="400" x2="400" y2="336.43" class="timeLineLine lineTitle" stroke-width="1.9599999999999997"></line><text x="415" y="416" font-family="sans-serif" class="txt" text-anchor="end" dominant-baseline="central" transform="rotate(-45, 425, 400)">Acta Zuid-Holland</text><line x1="425" y1="400" x2="425" y2="342.4" class="timeLineLine lineTitle" stroke-width="0.48999999999999994"></line><text x="440" y="416" font-family="sans-serif" class="txt" text-anchor="end" dominant-baseline="central" transform="rotate(-45, 450, 400)">Dagboek De Clercq</text><line x1="450" y1="400" x2="450" y2="353.2" class="timeLineLine lineTitle" stroke-width="0.48999999999999994"></line><text x="465" y="416" font-family="sans-serif" class="txt" text-anchor="end" dominant-baseline="central" transform="rotate(-45, 475, 400)">Dagboeken De Beaufort</text><line x1="475" y1="400" x2="475" y2="356.5" class="timeLineLine lineTitle" stroke-width="0.48999999999999994"></line><text x="490" y="416" font-family="sans-serif" class="txt" text-anchor="end" dominant-baseline="central" transform="rotate(-45, 500, 400)">Varia</text><line x1="500" y1="400" x2="500" y2="365.8" class="timeLineLine lineTitle" stroke-width="0.48999999999999994"></line>123<line x1="70" y1="1000" x2="570" y2="1000" class="thinLine" stroke-opacity="0.2"></line><line x1="70" y1="970" x2="570" y2="970" class="thinLine" stroke-opacity="0.2"></line><line x1="70" y1="940" x2="570" y2="940" class="thinLine" stroke-opacity="0.2"></line><line x1="70" y1="910" x2="570" y2="910" class="thinLine" stroke-opacity="0.2"></line><line x1="70" y1="880" x2="570" y2="880" class="thinLine" stroke-opacity="0.2"></line><line x1="70" y1="850" x2="570" y2="850" class="thinLine" stroke-opacity="0.2"></line><line x1="70" y1="820" x2="570" y2="820" class="thinLine" stroke-opacity="0.2"></line><line x1="70" y1="790" x2="570" y2="790" class="thinLine" stroke-opacity="0.2"></line><line x1="70" y1="760" x2="570" y2="760" class="thinLine" stroke-opacity="0.2"></line><line x1="70" y1="730" x2="570" y2="730" class="thinLine" stroke-opacity="0.2"></line><line x1="70" y1="700" x2="570" y2="700" class="thinLine" stroke-opacity="0.2"></line><text x="100" y="1016" class="txt" font-family="sans-serif">X</text><line x1="100" y1="1000" x2="100" y2="846.76702" class="timeLineLine lineWord" stroke-width="12.25"></line><line x1="110" y1="1000" x2="110" y2="934.24" class="timeLineLine lineTitle" stroke-width="1.9599999999999997"></line><text x="143" y="1016" class="txt" font-family="sans-serif">12</text><line x1="143" y1="1000" x2="143" y2="990" class="timeLineLine lineWord" stroke-width="2"></line><line x1="153" y1="1000" x2="153" y2="990" class="timeLineLine lineTitle" stroke-width="2"></line><text x="186" y="1016" class="txt" font-family="sans-serif">13</text><line x1="186" y1="1000" x2="186" y2="842.7388" class="timeLineLine lineWord" stroke-width="12.25"></line><line x1="196" y1="1000" x2="196" y2="-Infinity" class="timeLineLine lineTitle" stroke-width="0"></line><text x="229" y="1016" class="txt" font-family="sans-serif">14</text><line x1="229" y1="1000" x2="229" y2="816.376111" class="timeLineLine lineWord" stroke-width="17.639999999999993"></line><line x1="239" y1="1000" x2="239" y2="898.588" class="timeLineLine lineTitle" stroke-width="4.409999999999998"></line><text x="272" y="1016" class="txt" font-family="sans-serif">15</text><line x1="272" y1="1000" x2="272" y2="816.466993" class="timeLineLine lineWord" stroke-width="17.639999999999993"></line><line x1="282" y1="1000" x2="282" y2="990" class="timeLineLine lineTitle" stroke-width="2"></line><text x="315" y="1016" class="txt" font-family="sans-serif">16</text><line x1="315" y1="1000" x2="315" y2="786.9247516" class="timeLineLine lineWord" stroke-width="24.009999999999994"></line><line x1="325" y1="1000" x2="325" y2="944.2" class="timeLineLine lineTitle" stroke-width="0.48999999999999994"></line><text x="358" y="1016" class="txt" font-family="sans-serif">17</text><line x1="358" y1="1000" x2="358" y2="770.046448" class="timeLineLine lineWord" stroke-width="24.009999999999994"></line><line x1="368" y1="1000" x2="368" y2="859.927" class="timeLineLine lineTitle" stroke-width="7.839999999999999"></line><text x="401" y="1016" class="txt" font-family="sans-serif">18</text><line x1="401" y1="1000" x2="401" y2="726.7538983659999" class="timeLineLine lineWord" stroke-width="39.69"></line><line x1="411" y1="1000" x2="411" y2="827.29027" class="timeLineLine lineTitle" stroke-width="12.25"></line><text x="444" y="1016" class="txt" font-family="sans-serif">19</text><line x1="444" y1="1000" x2="444" y2="710.313060988" class="timeLineLine lineWord" stroke-width="39.69"></line><line x1="454" y1="1000" x2="454" y2="786.4676944" class="timeLineLine lineTitle" stroke-width="24.009999999999994"></line><text x="487" y="1016" class="txt" font-family="sans-serif">20</text><line x1="487" y1="1000" x2="487" y2="990" class="timeLineLine lineWord" stroke-width="2"></line><line x1="497" y1="1000" x2="497" y2="781.9442799999999" class="timeLineLine lineTitle" stroke-width="24.009999999999994"></line><text x="530" y="1016" class="txt" font-family="sans-serif">21</text><line x1="530" y1="1000" x2="530" y2="741.04198624" class="timeLineLine lineWord" stroke-width="31.359999999999996"></line><line x1="540" y1="1000" x2="540" y2="814.032868" class="timeLineLine lineTitle" stroke-width="17.639999999999993"></line></g>



    </svg>
