<svg version="1.1" height="1000" width="600">
  <style>
    .bg {
      fill: #B2CAD4;

    }
    .txt {
      font: 12px sans-serif;
      color: rgb(45, 45, 45);
    }

    .timeLineLine {
    }

    .lineTitle {
      stroke:#27596e;
    }
    .lineWord {

      stroke:#6a96a8;
    }

    .thinLine {
      stroke:rgba(255, 255, 255, 0.1);
    }

  </style>



        <rect width="100%" height="100%" class="bg"></rect>
        <g id="timeLine">123<line x1="50" y1="330" x2="550" y2="330" class="thinLine" stroke-opacity="0.2"></line><text x="50" y="330" class="small">0</text><line x1="50" y1="300" x2="550" y2="300" class="thinLine" stroke-opacity="0.2"></line><text x="50" y="300" class="small">10</text><line x1="50" y1="270" x2="550" y2="270" class="thinLine" stroke-opacity="0.2"></line><text x="50" y="270" class="small">100</text><line x1="50" y1="240" x2="550" y2="240" class="thinLine" stroke-opacity="0.2"></line><text x="50" y="240" class="small">1000</text><line x1="50" y1="210" x2="550" y2="210" class="thinLine" stroke-opacity="0.2"></line><text x="50" y="210" class="small">10000</text><line x1="50" y1="180" x2="550" y2="180" class="thinLine" stroke-opacity="0.2"></line><text x="50" y="180" class="small">100000</text><line x1="50" y1="150" x2="550" y2="150" class="thinLine" stroke-opacity="0.2"></line><text x="50" y="150" class="small">1000000</text><line x1="50" y1="120" x2="550" y2="120" class="thinLine" stroke-opacity="0.2"></line><text x="50" y="120" class="small">10000000</text><line x1="50" y1="90" x2="550" y2="90" class="thinLine" stroke-opacity="0.2"></line><text x="50" y="90" class="small">100000000</text><line x1="50" y1="60" x2="550" y2="60" class="thinLine" stroke-opacity="0.2"></line><text x="50" y="60" class="small">1000000000</text><line x1="50" y1="30" x2="550" y2="30" class="thinLine" stroke-opacity="0.2"></line><text x="50" y="30" class="small">10000000000</text><text x="70" y="346" font-family="sans-serif" class="txt" text-anchor="end" dominant-baseline="central" transform="rotate(-45, 80, 330)">KB kranten</text><line x1="80" y1="330" x2="80" y2="98.3779539" class="timeLineLine lineTitle" stroke-width="24.009999999999994"></line>123<line x1="50" y1="330" x2="550" y2="330" class="thinLine" stroke-opacity="0.2"></line><text x="50" y="330" class="small">0</text><line x1="50" y1="300" x2="550" y2="300" class="thinLine" stroke-opacity="0.2"></line><text x="50" y="300" class="small">10</text><line x1="50" y1="270" x2="550" y2="270" class="thinLine" stroke-opacity="0.2"></line><text x="50" y="270" class="small">100</text><line x1="50" y1="240" x2="550" y2="240" class="thinLine" stroke-opacity="0.2"></line><text x="50" y="240" class="small">1000</text><line x1="50" y1="210" x2="550" y2="210" class="thinLine" stroke-opacity="0.2"></line><text x="50" y="210" class="small">10000</text><line x1="50" y1="180" x2="550" y2="180" class="thinLine" stroke-opacity="0.2"></line><text x="50" y="180" class="small">100000</text><line x1="50" y1="150" x2="550" y2="150" class="thinLine" stroke-opacity="0.2"></line><text x="50" y="150" class="small">1000000</text><line x1="50" y1="120" x2="550" y2="120" class="thinLine" stroke-opacity="0.2"></line><text x="50" y="120" class="small">10000000</text><line x1="50" y1="90" x2="550" y2="90" class="thinLine" stroke-opacity="0.2"></line><text x="50" y="90" class="small">100000000</text><line x1="50" y1="60" x2="550" y2="60" class="thinLine" stroke-opacity="0.2"></line><text x="50" y="60" class="small">1000000000</text><line x1="50" y1="30" x2="550" y2="30" class="thinLine" stroke-opacity="0.2"></line><text x="50" y="30" class="small">10000000000</text><text x="95" y="346" font-family="sans-serif" class="txt" text-anchor="end" dominant-baseline="central" transform="rotate(-45, 105, 330)">SoNaR</text><line x1="105" y1="330" x2="105" y2="143.670966" class="timeLineLine lineTitle" stroke-width="17.639999999999993"></line>123<line x1="50" y1="330" x2="550" y2="330" class="thinLine" stroke-opacity="0.2"></line><text x="50" y="330" class="small">0</text><line x1="50" y1="300" x2="550" y2="300" class="thinLine" stroke-opacity="0.2"></line><text x="50" y="300" class="small">10</text><line x1="50" y1="270" x2="550" y2="270" class="thinLine" stroke-opacity="0.2"></line><text x="50" y="270" class="small">100</text><line x1="50" y1="240" x2="550" y2="240" class="thinLine" stroke-opacity="0.2"></line><text x="50" y="240" class="small">1000</text><line x1="50" y1="210" x2="550" y2="210" class="thinLine" stroke-opacity="0.2"></line><text x="50" y="210" class="small">10000</text><line x1="50" y1="180" x2="550" y2="180" class="thinLine" stroke-opacity="0.2"></line><text x="50" y="180" class="small">100000</text><line x1="50" y1="150" x2="550" y2="150" class="thinLine" stroke-opacity="0.2"></line><text x="50" y="150" class="small">1000000</text><line x1="50" y1="120" x2="550" y2="120" class="thinLine" stroke-opacity="0.2"></line><text x="50" y="120" class="small">10000000</text><line x1="50" y1="90" x2="550" y2="90" class="thinLine" stroke-opacity="0.2"></line><text x="50" y="90" class="small">100000000</text><line x1="50" y1="60" x2="550" y2="60" class="thinLine" stroke-opacity="0.2"></line><text x="50" y="60" class="small">1000000000</text><line x1="50" y1="30" x2="550" y2="30" class="thinLine" stroke-opacity="0.2"></line><text x="50" y="30" class="small">10000000000</text><text x="120" y="346" font-family="sans-serif" class="txt" text-anchor="end" dominant-baseline="central" transform="rotate(-45, 130, 330)">DBNL</text><line x1="130" y1="330" x2="130" y2="169.6359" class="timeLineLine lineTitle" stroke-width="12.25"></line>123<line x1="50" y1="330" x2="550" y2="330" class="thinLine" stroke-opacity="0.2"></line><text x="50" y="330" class="small">0</text><line x1="50" y1="300" x2="550" y2="300" class="thinLine" stroke-opacity="0.2"></line><text x="50" y="300" class="small">10</text><line x1="50" y1="270" x2="550" y2="270" class="thinLine" stroke-opacity="0.2"></line><text x="50" y="270" class="small">100</text><line x1="50" y1="240" x2="550" y2="240" class="thinLine" stroke-opacity="0.2"></line><text x="50" y="240" class="small">1000</text><line x1="50" y1="210" x2="550" y2="210" class="thinLine" stroke-opacity="0.2"></line><text x="50" y="210" class="small">10000</text><line x1="50" y1="180" x2="550" y2="180" class="thinLine" stroke-opacity="0.2"></line><text x="50" y="180" class="small">100000</text><line x1="50" y1="150" x2="550" y2="150" class="thinLine" stroke-opacity="0.2"></line><text x="50" y="150" class="small">1000000</text><line x1="50" y1="120" x2="550" y2="120" class="thinLine" stroke-opacity="0.2"></line><text x="50" y="120" class="small">10000000</text><line x1="50" y1="90" x2="550" y2="90" class="thinLine" stroke-opacity="0.2"></line><text x="50" y="90" class="small">100000000</text><line x1="50" y1="60" x2="550" y2="60" class="thinLine" stroke-opacity="0.2"></line><text x="50" y="60" class="small">1000000000</text><line x1="50" y1="30" x2="550" y2="30" class="thinLine" stroke-opacity="0.2"></line><text x="50" y="30" class="small">10000000000</text><text x="145" y="346" font-family="sans-serif" class="txt" text-anchor="end" dominant-baseline="central" transform="rotate(-45, 155, 330)">Staten-Generaal Digitaal</text><line x1="155" y1="330" x2="155" y2="174.83919" class="timeLineLine lineTitle" stroke-width="12.25"></line>123<line x1="50" y1="330" x2="550" y2="330" class="thinLine" stroke-opacity="0.2"></line><text x="50" y="330" class="small">0</text><line x1="50" y1="300" x2="550" y2="300" class="thinLine" stroke-opacity="0.2"></line><text x="50" y="300" class="small">10</text><line x1="50" y1="270" x2="550" y2="270" class="thinLine" stroke-opacity="0.2"></line><text x="50" y="270" class="small">100</text><line x1="50" y1="240" x2="550" y2="240" class="thinLine" stroke-opacity="0.2"></line><text x="50" y="240" class="small">1000</text><line x1="50" y1="210" x2="550" y2="210" class="thinLine" stroke-opacity="0.2"></line><text x="50" y="210" class="small">10000</text><line x1="50" y1="180" x2="550" y2="180" class="thinLine" stroke-opacity="0.2"></line><text x="50" y="180" class="small">100000</text><line x1="50" y1="150" x2="550" y2="150" class="thinLine" stroke-opacity="0.2"></line><text x="50" y="150" class="small">1000000</text><line x1="50" y1="120" x2="550" y2="120" class="thinLine" stroke-opacity="0.2"></line><text x="50" y="120" class="small">10000000</text><line x1="50" y1="90" x2="550" y2="90" class="thinLine" stroke-opacity="0.2"></line><text x="50" y="90" class="small">100000000</text><line x1="50" y1="60" x2="550" y2="60" class="thinLine" stroke-opacity="0.2"></line><text x="50" y="60" class="small">1000000000</text><line x1="50" y1="30" x2="550" y2="30" class="thinLine" stroke-opacity="0.2"></line><text x="50" y="30" class="small">10000000000</text><text x="170" y="346" font-family="sans-serif" class="txt" text-anchor="end" dominant-baseline="central" transform="rotate(-45, 180, 330)">Geleerdenbrieven</text><line x1="180" y1="330" x2="180" y2="203.9211" class="timeLineLine lineTitle" stroke-width="7.839999999999999"></line>123<line x1="50" y1="330" x2="550" y2="330" class="thinLine" stroke-opacity="0.2"></line><text x="50" y="330" class="small">0</text><line x1="50" y1="300" x2="550" y2="300" class="thinLine" stroke-opacity="0.2"></line><text x="50" y="300" class="small">10</text><line x1="50" y1="270" x2="550" y2="270" class="thinLine" stroke-opacity="0.2"></line><text x="50" y="270" class="small">100</text><line x1="50" y1="240" x2="550" y2="240" class="thinLine" stroke-opacity="0.2"></line><text x="50" y="240" class="small">1000</text><line x1="50" y1="210" x2="550" y2="210" class="thinLine" stroke-opacity="0.2"></line><text x="50" y="210" class="small">10000</text><line x1="50" y1="180" x2="550" y2="180" class="thinLine" stroke-opacity="0.2"></line><text x="50" y="180" class="small">100000</text><line x1="50" y1="150" x2="550" y2="150" class="thinLine" stroke-opacity="0.2"></line><text x="50" y="150" class="small">1000000</text><line x1="50" y1="120" x2="550" y2="120" class="thinLine" stroke-opacity="0.2"></line><text x="50" y="120" class="small">10000000</text><line x1="50" y1="90" x2="550" y2="90" class="thinLine" stroke-opacity="0.2"></line><text x="50" y="90" class="small">100000000</text><line x1="50" y1="60" x2="550" y2="60" class="thinLine" stroke-opacity="0.2"></line><text x="50" y="60" class="small">1000000000</text><line x1="50" y1="30" x2="550" y2="30" class="thinLine" stroke-opacity="0.2"></line><text x="50" y="30" class="small">10000000000</text><text x="195" y="346" font-family="sans-serif" class="txt" text-anchor="end" dominant-baseline="central" transform="rotate(-45, 205, 330)">Briefwisseling Heinsius</text><line x1="205" y1="330" x2="205" y2="204.31619999999998" class="timeLineLine lineTitle" stroke-width="7.839999999999999"></line>123<line x1="50" y1="330" x2="550" y2="330" class="thinLine" stroke-opacity="0.2"></line><text x="50" y="330" class="small">0</text><line x1="50" y1="300" x2="550" y2="300" class="thinLine" stroke-opacity="0.2"></line><text x="50" y="300" class="small">10</text><line x1="50" y1="270" x2="550" y2="270" class="thinLine" stroke-opacity="0.2"></line><text x="50" y="270" class="small">100</text><line x1="50" y1="240" x2="550" y2="240" class="thinLine" stroke-opacity="0.2"></line><text x="50" y="240" class="small">1000</text><line x1="50" y1="210" x2="550" y2="210" class="thinLine" stroke-opacity="0.2"></line><text x="50" y="210" class="small">10000</text><line x1="50" y1="180" x2="550" y2="180" class="thinLine" stroke-opacity="0.2"></line><text x="50" y="180" class="small">100000</text><line x1="50" y1="150" x2="550" y2="150" class="thinLine" stroke-opacity="0.2"></line><text x="50" y="150" class="small">1000000</text><line x1="50" y1="120" x2="550" y2="120" class="thinLine" stroke-opacity="0.2"></line><text x="50" y="120" class="small">10000000</text><line x1="50" y1="90" x2="550" y2="90" class="thinLine" stroke-opacity="0.2"></line><text x="50" y="90" class="small">100000000</text><line x1="50" y1="60" x2="550" y2="60" class="thinLine" stroke-opacity="0.2"></line><text x="50" y="60" class="small">1000000000</text><line x1="50" y1="30" x2="550" y2="30" class="thinLine" stroke-opacity="0.2"></line><text x="50" y="30" class="small">10000000000</text><text x="220" y="346" font-family="sans-serif" class="txt" text-anchor="end" dominant-baseline="central" transform="rotate(-45, 230, 330)">EDBO</text><line x1="230" y1="330" x2="230" y2="205.69889999999998" class="timeLineLine lineTitle" stroke-width="7.839999999999999"></line>123<line x1="50" y1="330" x2="550" y2="330" class="thinLine" stroke-opacity="0.2"></line><text x="50" y="330" class="small">0</text><line x1="50" y1="300" x2="550" y2="300" class="thinLine" stroke-opacity="0.2"></line><text x="50" y="300" class="small">10</text><line x1="50" y1="270" x2="550" y2="270" class="thinLine" stroke-opacity="0.2"></line><text x="50" y="270" class="small">100</text><line x1="50" y1="240" x2="550" y2="240" class="thinLine" stroke-opacity="0.2"></line><text x="50" y="240" class="small">1000</text><line x1="50" y1="210" x2="550" y2="210" class="thinLine" stroke-opacity="0.2"></line><text x="50" y="210" class="small">10000</text><line x1="50" y1="180" x2="550" y2="180" class="thinLine" stroke-opacity="0.2"></line><text x="50" y="180" class="small">100000</text><line x1="50" y1="150" x2="550" y2="150" class="thinLine" stroke-opacity="0.2"></line><text x="50" y="150" class="small">1000000</text><line x1="50" y1="120" x2="550" y2="120" class="thinLine" stroke-opacity="0.2"></line><text x="50" y="120" class="small">10000000</text><line x1="50" y1="90" x2="550" y2="90" class="thinLine" stroke-opacity="0.2"></line><text x="50" y="90" class="small">100000000</text><line x1="50" y1="60" x2="550" y2="60" class="thinLine" stroke-opacity="0.2"></line><text x="50" y="60" class="small">1000000000</text><line x1="50" y1="30" x2="550" y2="30" class="thinLine" stroke-opacity="0.2"></line><text x="50" y="30" class="small">10000000000</text><text x="245" y="346" font-family="sans-serif" class="txt" text-anchor="end" dominant-baseline="central" transform="rotate(-45, 255, 330)">CRM</text><line x1="255" y1="330" x2="255" y2="228.582" class="timeLineLine lineTitle" stroke-width="4.409999999999998"></line>123<line x1="50" y1="330" x2="550" y2="330" class="thinLine" stroke-opacity="0.2"></line><text x="50" y="330" class="small">0</text><line x1="50" y1="300" x2="550" y2="300" class="thinLine" stroke-opacity="0.2"></line><text x="50" y="300" class="small">10</text><line x1="50" y1="270" x2="550" y2="270" class="thinLine" stroke-opacity="0.2"></line><text x="50" y="270" class="small">100</text><line x1="50" y1="240" x2="550" y2="240" class="thinLine" stroke-opacity="0.2"></line><text x="50" y="240" class="small">1000</text><line x1="50" y1="210" x2="550" y2="210" class="thinLine" stroke-opacity="0.2"></line><text x="50" y="210" class="small">10000</text><line x1="50" y1="180" x2="550" y2="180" class="thinLine" stroke-opacity="0.2"></line><text x="50" y="180" class="small">100000</text><line x1="50" y1="150" x2="550" y2="150" class="thinLine" stroke-opacity="0.2"></line><text x="50" y="150" class="small">1000000</text><line x1="50" y1="120" x2="550" y2="120" class="thinLine" stroke-opacity="0.2"></line><text x="50" y="120" class="small">10000000</text><line x1="50" y1="90" x2="550" y2="90" class="thinLine" stroke-opacity="0.2"></line><text x="50" y="90" class="small">100000000</text><line x1="50" y1="60" x2="550" y2="60" class="thinLine" stroke-opacity="0.2"></line><text x="50" y="60" class="small">1000000000</text><line x1="50" y1="30" x2="550" y2="30" class="thinLine" stroke-opacity="0.2"></line><text x="50" y="30" class="small">10000000000</text><text x="270" y="346" font-family="sans-serif" class="txt" text-anchor="end" dominant-baseline="central" transform="rotate(-45, 280, 330)">Gekaapte brieven</text><line x1="280" y1="330" x2="280" y2="234.147" class="timeLineLine lineTitle" stroke-width="4.409999999999998"></line>123<line x1="50" y1="330" x2="550" y2="330" class="thinLine" stroke-opacity="0.2"></line><text x="50" y="330" class="small">0</text><line x1="50" y1="300" x2="550" y2="300" class="thinLine" stroke-opacity="0.2"></line><text x="50" y="300" class="small">10</text><line x1="50" y1="270" x2="550" y2="270" class="thinLine" stroke-opacity="0.2"></line><text x="50" y="270" class="small">100</text><line x1="50" y1="240" x2="550" y2="240" class="thinLine" stroke-opacity="0.2"></line><text x="50" y="240" class="small">1000</text><line x1="50" y1="210" x2="550" y2="210" class="thinLine" stroke-opacity="0.2"></line><text x="50" y="210" class="small">10000</text><line x1="50" y1="180" x2="550" y2="180" class="thinLine" stroke-opacity="0.2"></line><text x="50" y="180" class="small">100000</text><line x1="50" y1="150" x2="550" y2="150" class="thinLine" stroke-opacity="0.2"></line><text x="50" y="150" class="small">1000000</text><line x1="50" y1="120" x2="550" y2="120" class="thinLine" stroke-opacity="0.2"></line><text x="50" y="120" class="small">10000000</text><line x1="50" y1="90" x2="550" y2="90" class="thinLine" stroke-opacity="0.2"></line><text x="50" y="90" class="small">100000000</text><line x1="50" y1="60" x2="550" y2="60" class="thinLine" stroke-opacity="0.2"></line><text x="50" y="60" class="small">1000000000</text><line x1="50" y1="30" x2="550" y2="30" class="thinLine" stroke-opacity="0.2"></line><text x="50" y="30" class="small">10000000000</text><text x="295" y="346" font-family="sans-serif" class="txt" text-anchor="end" dominant-baseline="central" transform="rotate(-45, 305, 330)">Correspondentie Clusius</text><line x1="305" y1="330" x2="305" y2="236.559" class="timeLineLine lineTitle" stroke-width="4.409999999999998"></line>123<line x1="50" y1="330" x2="550" y2="330" class="thinLine" stroke-opacity="0.2"></line><text x="50" y="330" class="small">0</text><line x1="50" y1="300" x2="550" y2="300" class="thinLine" stroke-opacity="0.2"></line><text x="50" y="300" class="small">10</text><line x1="50" y1="270" x2="550" y2="270" class="thinLine" stroke-opacity="0.2"></line><text x="50" y="270" class="small">100</text><line x1="50" y1="240" x2="550" y2="240" class="thinLine" stroke-opacity="0.2"></line><text x="50" y="240" class="small">1000</text><line x1="50" y1="210" x2="550" y2="210" class="thinLine" stroke-opacity="0.2"></line><text x="50" y="210" class="small">10000</text><line x1="50" y1="180" x2="550" y2="180" class="thinLine" stroke-opacity="0.2"></line><text x="50" y="180" class="small">100000</text><line x1="50" y1="150" x2="550" y2="150" class="thinLine" stroke-opacity="0.2"></line><text x="50" y="150" class="small">1000000</text><line x1="50" y1="120" x2="550" y2="120" class="thinLine" stroke-opacity="0.2"></line><text x="50" y="120" class="small">10000000</text><line x1="50" y1="90" x2="550" y2="90" class="thinLine" stroke-opacity="0.2"></line><text x="50" y="90" class="small">100000000</text><line x1="50" y1="60" x2="550" y2="60" class="thinLine" stroke-opacity="0.2"></line><text x="50" y="60" class="small">1000000000</text><line x1="50" y1="30" x2="550" y2="30" class="thinLine" stroke-opacity="0.2"></line><text x="50" y="30" class="small">10000000000</text><text x="320" y="346" font-family="sans-serif" class="txt" text-anchor="end" dominant-baseline="central" transform="rotate(-45, 330, 330)">Brieven Van Gogh</text><line x1="330" y1="330" x2="330" y2="252.12" class="timeLineLine lineTitle" stroke-width="1.9599999999999997"></line>123<line x1="50" y1="330" x2="550" y2="330" class="thinLine" stroke-opacity="0.2"></line><text x="50" y="330" class="small">0</text><line x1="50" y1="300" x2="550" y2="300" class="thinLine" stroke-opacity="0.2"></line><text x="50" y="300" class="small">10</text><line x1="50" y1="270" x2="550" y2="270" class="thinLine" stroke-opacity="0.2"></line><text x="50" y="270" class="small">100</text><line x1="50" y1="240" x2="550" y2="240" class="thinLine" stroke-opacity="0.2"></line><text x="50" y="240" class="small">1000</text><line x1="50" y1="210" x2="550" y2="210" class="thinLine" stroke-opacity="0.2"></line><text x="50" y="210" class="small">10000</text><line x1="50" y1="180" x2="550" y2="180" class="thinLine" stroke-opacity="0.2"></line><text x="50" y="180" class="small">100000</text><line x1="50" y1="150" x2="550" y2="150" class="thinLine" stroke-opacity="0.2"></line><text x="50" y="150" class="small">1000000</text><line x1="50" y1="120" x2="550" y2="120" class="thinLine" stroke-opacity="0.2"></line><text x="50" y="120" class="small">10000000</text><line x1="50" y1="90" x2="550" y2="90" class="thinLine" stroke-opacity="0.2"></line><text x="50" y="90" class="small">100000000</text><line x1="50" y1="60" x2="550" y2="60" class="thinLine" stroke-opacity="0.2"></line><text x="50" y="60" class="small">1000000000</text><line x1="50" y1="30" x2="550" y2="30" class="thinLine" stroke-opacity="0.2"></line><text x="50" y="30" class="small">10000000000</text><text x="345" y="346" font-family="sans-serif" class="txt" text-anchor="end" dominant-baseline="central" transform="rotate(-45, 355, 330)">Beschrijyvinge Oostindische Compagnie</text><line x1="355" y1="330" x2="355" y2="254.61" class="timeLineLine lineTitle" stroke-width="1.9599999999999997"></line>123<line x1="50" y1="330" x2="550" y2="330" class="thinLine" stroke-opacity="0.2"></line><text x="50" y="330" class="small">0</text><line x1="50" y1="300" x2="550" y2="300" class="thinLine" stroke-opacity="0.2"></line><text x="50" y="300" class="small">10</text><line x1="50" y1="270" x2="550" y2="270" class="thinLine" stroke-opacity="0.2"></line><text x="50" y="270" class="small">100</text><line x1="50" y1="240" x2="550" y2="240" class="thinLine" stroke-opacity="0.2"></line><text x="50" y="240" class="small">1000</text><line x1="50" y1="210" x2="550" y2="210" class="thinLine" stroke-opacity="0.2"></line><text x="50" y="210" class="small">10000</text><line x1="50" y1="180" x2="550" y2="180" class="thinLine" stroke-opacity="0.2"></line><text x="50" y="180" class="small">100000</text><line x1="50" y1="150" x2="550" y2="150" class="thinLine" stroke-opacity="0.2"></line><text x="50" y="150" class="small">1000000</text><line x1="50" y1="120" x2="550" y2="120" class="thinLine" stroke-opacity="0.2"></line><text x="50" y="120" class="small">10000000</text><line x1="50" y1="90" x2="550" y2="90" class="thinLine" stroke-opacity="0.2"></line><text x="50" y="90" class="small">100000000</text><line x1="50" y1="60" x2="550" y2="60" class="thinLine" stroke-opacity="0.2"></line><text x="50" y="60" class="small">1000000000</text><line x1="50" y1="30" x2="550" y2="30" class="thinLine" stroke-opacity="0.2"></line><text x="50" y="30" class="small">10000000000</text><text x="370" y="346" font-family="sans-serif" class="txt" text-anchor="end" dominant-baseline="central" transform="rotate(-45, 380, 330)">Notulen Staten van Holland</text><line x1="380" y1="330" x2="380" y2="266.43" class="timeLineLine lineTitle" stroke-width="1.9599999999999997"></line>123<line x1="50" y1="330" x2="550" y2="330" class="thinLine" stroke-opacity="0.2"></line><text x="50" y="330" class="small">0</text><line x1="50" y1="300" x2="550" y2="300" class="thinLine" stroke-opacity="0.2"></line><text x="50" y="300" class="small">10</text><line x1="50" y1="270" x2="550" y2="270" class="thinLine" stroke-opacity="0.2"></line><text x="50" y="270" class="small">100</text><line x1="50" y1="240" x2="550" y2="240" class="thinLine" stroke-opacity="0.2"></line><text x="50" y="240" class="small">1000</text><line x1="50" y1="210" x2="550" y2="210" class="thinLine" stroke-opacity="0.2"></line><text x="50" y="210" class="small">10000</text><line x1="50" y1="180" x2="550" y2="180" class="thinLine" stroke-opacity="0.2"></line><text x="50" y="180" class="small">100000</text><line x1="50" y1="150" x2="550" y2="150" class="thinLine" stroke-opacity="0.2"></line><text x="50" y="150" class="small">1000000</text><line x1="50" y1="120" x2="550" y2="120" class="thinLine" stroke-opacity="0.2"></line><text x="50" y="120" class="small">10000000</text><line x1="50" y1="90" x2="550" y2="90" class="thinLine" stroke-opacity="0.2"></line><text x="50" y="90" class="small">100000000</text><line x1="50" y1="60" x2="550" y2="60" class="thinLine" stroke-opacity="0.2"></line><text x="50" y="60" class="small">1000000000</text><line x1="50" y1="30" x2="550" y2="30" class="thinLine" stroke-opacity="0.2"></line><text x="50" y="30" class="small">10000000000</text><text x="395" y="346" font-family="sans-serif" class="txt" text-anchor="end" dominant-baseline="central" transform="rotate(-45, 405, 330)">Acta Zuid-Holland</text><line x1="405" y1="330" x2="405" y2="272.4" class="timeLineLine lineTitle" stroke-width="0.48999999999999994"></line>123<line x1="50" y1="330" x2="550" y2="330" class="thinLine" stroke-opacity="0.2"></line><text x="50" y="330" class="small">0</text><line x1="50" y1="300" x2="550" y2="300" class="thinLine" stroke-opacity="0.2"></line><text x="50" y="300" class="small">10</text><line x1="50" y1="270" x2="550" y2="270" class="thinLine" stroke-opacity="0.2"></line><text x="50" y="270" class="small">100</text><line x1="50" y1="240" x2="550" y2="240" class="thinLine" stroke-opacity="0.2"></line><text x="50" y="240" class="small">1000</text><line x1="50" y1="210" x2="550" y2="210" class="thinLine" stroke-opacity="0.2"></line><text x="50" y="210" class="small">10000</text><line x1="50" y1="180" x2="550" y2="180" class="thinLine" stroke-opacity="0.2"></line><text x="50" y="180" class="small">100000</text><line x1="50" y1="150" x2="550" y2="150" class="thinLine" stroke-opacity="0.2"></line><text x="50" y="150" class="small">1000000</text><line x1="50" y1="120" x2="550" y2="120" class="thinLine" stroke-opacity="0.2"></line><text x="50" y="120" class="small">10000000</text><line x1="50" y1="90" x2="550" y2="90" class="thinLine" stroke-opacity="0.2"></line><text x="50" y="90" class="small">100000000</text><line x1="50" y1="60" x2="550" y2="60" class="thinLine" stroke-opacity="0.2"></line><text x="50" y="60" class="small">1000000000</text><line x1="50" y1="30" x2="550" y2="30" class="thinLine" stroke-opacity="0.2"></line><text x="50" y="30" class="small">10000000000</text><text x="420" y="346" font-family="sans-serif" class="txt" text-anchor="end" dominant-baseline="central" transform="rotate(-45, 430, 330)">Dagboek De Clercq</text><line x1="430" y1="330" x2="430" y2="283.2" class="timeLineLine lineTitle" stroke-width="0.48999999999999994"></line>123<line x1="50" y1="330" x2="550" y2="330" class="thinLine" stroke-opacity="0.2"></line><text x="50" y="330" class="small">0</text><line x1="50" y1="300" x2="550" y2="300" class="thinLine" stroke-opacity="0.2"></line><text x="50" y="300" class="small">10</text><line x1="50" y1="270" x2="550" y2="270" class="thinLine" stroke-opacity="0.2"></line><text x="50" y="270" class="small">100</text><line x1="50" y1="240" x2="550" y2="240" class="thinLine" stroke-opacity="0.2"></line><text x="50" y="240" class="small">1000</text><line x1="50" y1="210" x2="550" y2="210" class="thinLine" stroke-opacity="0.2"></line><text x="50" y="210" class="small">10000</text><line x1="50" y1="180" x2="550" y2="180" class="thinLine" stroke-opacity="0.2"></line><text x="50" y="180" class="small">100000</text><line x1="50" y1="150" x2="550" y2="150" class="thinLine" stroke-opacity="0.2"></line><text x="50" y="150" class="small">1000000</text><line x1="50" y1="120" x2="550" y2="120" class="thinLine" stroke-opacity="0.2"></line><text x="50" y="120" class="small">10000000</text><line x1="50" y1="90" x2="550" y2="90" class="thinLine" stroke-opacity="0.2"></line><text x="50" y="90" class="small">100000000</text><line x1="50" y1="60" x2="550" y2="60" class="thinLine" stroke-opacity="0.2"></line><text x="50" y="60" class="small">1000000000</text><line x1="50" y1="30" x2="550" y2="30" class="thinLine" stroke-opacity="0.2"></line><text x="50" y="30" class="small">10000000000</text><text x="445" y="346" font-family="sans-serif" class="txt" text-anchor="end" dominant-baseline="central" transform="rotate(-45, 455, 330)">Dagboeken De Beaufort</text><line x1="455" y1="330" x2="455" y2="286.5" class="timeLineLine lineTitle" stroke-width="0.48999999999999994"></line>123<line x1="50" y1="330" x2="550" y2="330" class="thinLine" stroke-opacity="0.2"></line><text x="50" y="330" class="small">0</text><line x1="50" y1="300" x2="550" y2="300" class="thinLine" stroke-opacity="0.2"></line><text x="50" y="300" class="small">10</text><line x1="50" y1="270" x2="550" y2="270" class="thinLine" stroke-opacity="0.2"></line><text x="50" y="270" class="small">100</text><line x1="50" y1="240" x2="550" y2="240" class="thinLine" stroke-opacity="0.2"></line><text x="50" y="240" class="small">1000</text><line x1="50" y1="210" x2="550" y2="210" class="thinLine" stroke-opacity="0.2"></line><text x="50" y="210" class="small">10000</text><line x1="50" y1="180" x2="550" y2="180" class="thinLine" stroke-opacity="0.2"></line><text x="50" y="180" class="small">100000</text><line x1="50" y1="150" x2="550" y2="150" class="thinLine" stroke-opacity="0.2"></line><text x="50" y="150" class="small">1000000</text><line x1="50" y1="120" x2="550" y2="120" class="thinLine" stroke-opacity="0.2"></line><text x="50" y="120" class="small">10000000</text><line x1="50" y1="90" x2="550" y2="90" class="thinLine" stroke-opacity="0.2"></line><text x="50" y="90" class="small">100000000</text><line x1="50" y1="60" x2="550" y2="60" class="thinLine" stroke-opacity="0.2"></line><text x="50" y="60" class="small">1000000000</text><line x1="50" y1="30" x2="550" y2="30" class="thinLine" stroke-opacity="0.2"></line><text x="50" y="30" class="small">10000000000</text><text x="470" y="346" font-family="sans-serif" class="txt" text-anchor="end" dominant-baseline="central" transform="rotate(-45, 480, 330)">Varia</text><line x1="480" y1="330" x2="480" y2="295.8" class="timeLineLine lineTitle" stroke-width="0.48999999999999994"></line>123<line x1="50" y1="900" x2="550" y2="900" class="thinLine" stroke-opacity="0.2"></line><text x="50" y="900" class="small">0</text><line x1="50" y1="870" x2="550" y2="870" class="thinLine" stroke-opacity="0.2"></line><text x="50" y="870" class="small">10</text><line x1="50" y1="840" x2="550" y2="840" class="thinLine" stroke-opacity="0.2"></line><text x="50" y="840" class="small">100</text><line x1="50" y1="810" x2="550" y2="810" class="thinLine" stroke-opacity="0.2"></line><text x="50" y="810" class="small">1000</text><line x1="50" y1="780" x2="550" y2="780" class="thinLine" stroke-opacity="0.2"></line><text x="50" y="780" class="small">10000</text><line x1="50" y1="750" x2="550" y2="750" class="thinLine" stroke-opacity="0.2"></line><text x="50" y="750" class="small">100000</text><line x1="50" y1="720" x2="550" y2="720" class="thinLine" stroke-opacity="0.2"></line><text x="50" y="720" class="small">1000000</text><line x1="50" y1="690" x2="550" y2="690" class="thinLine" stroke-opacity="0.2"></line><text x="50" y="690" class="small">10000000</text><line x1="50" y1="660" x2="550" y2="660" class="thinLine" stroke-opacity="0.2"></line><text x="50" y="660" class="small">100000000</text><line x1="50" y1="630" x2="550" y2="630" class="thinLine" stroke-opacity="0.2"></line><text x="50" y="630" class="small">1000000000</text><line x1="50" y1="600" x2="550" y2="600" class="thinLine" stroke-opacity="0.2"></line><text x="50" y="600" class="small">10000000000</text><text x="80" y="916" class="txt" font-family="sans-serif">X</text><line x1="80" y1="900" x2="80" y2="746.76702" class="timeLineLine lineWord" stroke-width="12.25"></line><line x1="90" y1="900" x2="90" y2="834.24" class="timeLineLine lineTitle" stroke-width="1.9599999999999997"></line>123<line x1="50" y1="900" x2="550" y2="900" class="thinLine" stroke-opacity="0.2"></line><text x="50" y="900" class="small">0</text><line x1="50" y1="870" x2="550" y2="870" class="thinLine" stroke-opacity="0.2"></line><text x="50" y="870" class="small">10</text><line x1="50" y1="840" x2="550" y2="840" class="thinLine" stroke-opacity="0.2"></line><text x="50" y="840" class="small">100</text><line x1="50" y1="810" x2="550" y2="810" class="thinLine" stroke-opacity="0.2"></line><text x="50" y="810" class="small">1000</text><line x1="50" y1="780" x2="550" y2="780" class="thinLine" stroke-opacity="0.2"></line><text x="50" y="780" class="small">10000</text><line x1="50" y1="750" x2="550" y2="750" class="thinLine" stroke-opacity="0.2"></line><text x="50" y="750" class="small">100000</text><line x1="50" y1="720" x2="550" y2="720" class="thinLine" stroke-opacity="0.2"></line><text x="50" y="720" class="small">1000000</text><line x1="50" y1="690" x2="550" y2="690" class="thinLine" stroke-opacity="0.2"></line><text x="50" y="690" class="small">10000000</text><line x1="50" y1="660" x2="550" y2="660" class="thinLine" stroke-opacity="0.2"></line><text x="50" y="660" class="small">100000000</text><line x1="50" y1="630" x2="550" y2="630" class="thinLine" stroke-opacity="0.2"></line><text x="50" y="630" class="small">1000000000</text><line x1="50" y1="600" x2="550" y2="600" class="thinLine" stroke-opacity="0.2"></line><text x="50" y="600" class="small">10000000000</text><text x="123" y="916" class="txt" font-family="sans-serif">12</text><line x1="123" y1="900" x2="123" y2="890" class="timeLineLine lineWord" stroke-width="2"></line><line x1="133" y1="900" x2="133" y2="890" class="timeLineLine lineTitle" stroke-width="2"></line>123<line x1="50" y1="900" x2="550" y2="900" class="thinLine" stroke-opacity="0.2"></line><text x="50" y="900" class="small">0</text><line x1="50" y1="870" x2="550" y2="870" class="thinLine" stroke-opacity="0.2"></line><text x="50" y="870" class="small">10</text><line x1="50" y1="840" x2="550" y2="840" class="thinLine" stroke-opacity="0.2"></line><text x="50" y="840" class="small">100</text><line x1="50" y1="810" x2="550" y2="810" class="thinLine" stroke-opacity="0.2"></line><text x="50" y="810" class="small">1000</text><line x1="50" y1="780" x2="550" y2="780" class="thinLine" stroke-opacity="0.2"></line><text x="50" y="780" class="small">10000</text><line x1="50" y1="750" x2="550" y2="750" class="thinLine" stroke-opacity="0.2"></line><text x="50" y="750" class="small">100000</text><line x1="50" y1="720" x2="550" y2="720" class="thinLine" stroke-opacity="0.2"></line><text x="50" y="720" class="small">1000000</text><line x1="50" y1="690" x2="550" y2="690" class="thinLine" stroke-opacity="0.2"></line><text x="50" y="690" class="small">10000000</text><line x1="50" y1="660" x2="550" y2="660" class="thinLine" stroke-opacity="0.2"></line><text x="50" y="660" class="small">100000000</text><line x1="50" y1="630" x2="550" y2="630" class="thinLine" stroke-opacity="0.2"></line><text x="50" y="630" class="small">1000000000</text><line x1="50" y1="600" x2="550" y2="600" class="thinLine" stroke-opacity="0.2"></line><text x="50" y="600" class="small">10000000000</text><text x="166" y="916" class="txt" font-family="sans-serif">13</text><line x1="166" y1="900" x2="166" y2="742.7388" class="timeLineLine lineWord" stroke-width="12.25"></line><line x1="176" y1="900" x2="176" y2="-Infinity" class="timeLineLine lineTitle" stroke-width="0"></line>123<line x1="50" y1="900" x2="550" y2="900" class="thinLine" stroke-opacity="0.2"></line><text x="50" y="900" class="small">0</text><line x1="50" y1="870" x2="550" y2="870" class="thinLine" stroke-opacity="0.2"></line><text x="50" y="870" class="small">10</text><line x1="50" y1="840" x2="550" y2="840" class="thinLine" stroke-opacity="0.2"></line><text x="50" y="840" class="small">100</text><line x1="50" y1="810" x2="550" y2="810" class="thinLine" stroke-opacity="0.2"></line><text x="50" y="810" class="small">1000</text><line x1="50" y1="780" x2="550" y2="780" class="thinLine" stroke-opacity="0.2"></line><text x="50" y="780" class="small">10000</text><line x1="50" y1="750" x2="550" y2="750" class="thinLine" stroke-opacity="0.2"></line><text x="50" y="750" class="small">100000</text><line x1="50" y1="720" x2="550" y2="720" class="thinLine" stroke-opacity="0.2"></line><text x="50" y="720" class="small">1000000</text><line x1="50" y1="690" x2="550" y2="690" class="thinLine" stroke-opacity="0.2"></line><text x="50" y="690" class="small">10000000</text><line x1="50" y1="660" x2="550" y2="660" class="thinLine" stroke-opacity="0.2"></line><text x="50" y="660" class="small">100000000</text><line x1="50" y1="630" x2="550" y2="630" class="thinLine" stroke-opacity="0.2"></line><text x="50" y="630" class="small">1000000000</text><line x1="50" y1="600" x2="550" y2="600" class="thinLine" stroke-opacity="0.2"></line><text x="50" y="600" class="small">10000000000</text><text x="209" y="916" class="txt" font-family="sans-serif">14</text><line x1="209" y1="900" x2="209" y2="716.376111" class="timeLineLine lineWord" stroke-width="17.639999999999993"></line><line x1="219" y1="900" x2="219" y2="798.588" class="timeLineLine lineTitle" stroke-width="4.409999999999998"></line>123<line x1="50" y1="900" x2="550" y2="900" class="thinLine" stroke-opacity="0.2"></line><text x="50" y="900" class="small">0</text><line x1="50" y1="870" x2="550" y2="870" class="thinLine" stroke-opacity="0.2"></line><text x="50" y="870" class="small">10</text><line x1="50" y1="840" x2="550" y2="840" class="thinLine" stroke-opacity="0.2"></line><text x="50" y="840" class="small">100</text><line x1="50" y1="810" x2="550" y2="810" class="thinLine" stroke-opacity="0.2"></line><text x="50" y="810" class="small">1000</text><line x1="50" y1="780" x2="550" y2="780" class="thinLine" stroke-opacity="0.2"></line><text x="50" y="780" class="small">10000</text><line x1="50" y1="750" x2="550" y2="750" class="thinLine" stroke-opacity="0.2"></line><text x="50" y="750" class="small">100000</text><line x1="50" y1="720" x2="550" y2="720" class="thinLine" stroke-opacity="0.2"></line><text x="50" y="720" class="small">1000000</text><line x1="50" y1="690" x2="550" y2="690" class="thinLine" stroke-opacity="0.2"></line><text x="50" y="690" class="small">10000000</text><line x1="50" y1="660" x2="550" y2="660" class="thinLine" stroke-opacity="0.2"></line><text x="50" y="660" class="small">100000000</text><line x1="50" y1="630" x2="550" y2="630" class="thinLine" stroke-opacity="0.2"></line><text x="50" y="630" class="small">1000000000</text><line x1="50" y1="600" x2="550" y2="600" class="thinLine" stroke-opacity="0.2"></line><text x="50" y="600" class="small">10000000000</text><text x="252" y="916" class="txt" font-family="sans-serif">15</text><line x1="252" y1="900" x2="252" y2="716.466993" class="timeLineLine lineWord" stroke-width="17.639999999999993"></line><line x1="262" y1="900" x2="262" y2="890" class="timeLineLine lineTitle" stroke-width="2"></line>123<line x1="50" y1="900" x2="550" y2="900" class="thinLine" stroke-opacity="0.2"></line><text x="50" y="900" class="small">0</text><line x1="50" y1="870" x2="550" y2="870" class="thinLine" stroke-opacity="0.2"></line><text x="50" y="870" class="small">10</text><line x1="50" y1="840" x2="550" y2="840" class="thinLine" stroke-opacity="0.2"></line><text x="50" y="840" class="small">100</text><line x1="50" y1="810" x2="550" y2="810" class="thinLine" stroke-opacity="0.2"></line><text x="50" y="810" class="small">1000</text><line x1="50" y1="780" x2="550" y2="780" class="thinLine" stroke-opacity="0.2"></line><text x="50" y="780" class="small">10000</text><line x1="50" y1="750" x2="550" y2="750" class="thinLine" stroke-opacity="0.2"></line><text x="50" y="750" class="small">100000</text><line x1="50" y1="720" x2="550" y2="720" class="thinLine" stroke-opacity="0.2"></line><text x="50" y="720" class="small">1000000</text><line x1="50" y1="690" x2="550" y2="690" class="thinLine" stroke-opacity="0.2"></line><text x="50" y="690" class="small">10000000</text><line x1="50" y1="660" x2="550" y2="660" class="thinLine" stroke-opacity="0.2"></line><text x="50" y="660" class="small">100000000</text><line x1="50" y1="630" x2="550" y2="630" class="thinLine" stroke-opacity="0.2"></line><text x="50" y="630" class="small">1000000000</text><line x1="50" y1="600" x2="550" y2="600" class="thinLine" stroke-opacity="0.2"></line><text x="50" y="600" class="small">10000000000</text><text x="295" y="916" class="txt" font-family="sans-serif">16</text><line x1="295" y1="900" x2="295" y2="686.9247516" class="timeLineLine lineWord" stroke-width="24.009999999999994"></line><line x1="305" y1="900" x2="305" y2="844.2" class="timeLineLine lineTitle" stroke-width="0.48999999999999994"></line>123<line x1="50" y1="900" x2="550" y2="900" class="thinLine" stroke-opacity="0.2"></line><text x="50" y="900" class="small">0</text><line x1="50" y1="870" x2="550" y2="870" class="thinLine" stroke-opacity="0.2"></line><text x="50" y="870" class="small">10</text><line x1="50" y1="840" x2="550" y2="840" class="thinLine" stroke-opacity="0.2"></line><text x="50" y="840" class="small">100</text><line x1="50" y1="810" x2="550" y2="810" class="thinLine" stroke-opacity="0.2"></line><text x="50" y="810" class="small">1000</text><line x1="50" y1="780" x2="550" y2="780" class="thinLine" stroke-opacity="0.2"></line><text x="50" y="780" class="small">10000</text><line x1="50" y1="750" x2="550" y2="750" class="thinLine" stroke-opacity="0.2"></line><text x="50" y="750" class="small">100000</text><line x1="50" y1="720" x2="550" y2="720" class="thinLine" stroke-opacity="0.2"></line><text x="50" y="720" class="small">1000000</text><line x1="50" y1="690" x2="550" y2="690" class="thinLine" stroke-opacity="0.2"></line><text x="50" y="690" class="small">10000000</text><line x1="50" y1="660" x2="550" y2="660" class="thinLine" stroke-opacity="0.2"></line><text x="50" y="660" class="small">100000000</text><line x1="50" y1="630" x2="550" y2="630" class="thinLine" stroke-opacity="0.2"></line><text x="50" y="630" class="small">1000000000</text><line x1="50" y1="600" x2="550" y2="600" class="thinLine" stroke-opacity="0.2"></line><text x="50" y="600" class="small">10000000000</text><text x="338" y="916" class="txt" font-family="sans-serif">17</text><line x1="338" y1="900" x2="338" y2="670.046448" class="timeLineLine lineWord" stroke-width="24.009999999999994"></line><line x1="348" y1="900" x2="348" y2="759.927" class="timeLineLine lineTitle" stroke-width="7.839999999999999"></line>123<line x1="50" y1="900" x2="550" y2="900" class="thinLine" stroke-opacity="0.2"></line><text x="50" y="900" class="small">0</text><line x1="50" y1="870" x2="550" y2="870" class="thinLine" stroke-opacity="0.2"></line><text x="50" y="870" class="small">10</text><line x1="50" y1="840" x2="550" y2="840" class="thinLine" stroke-opacity="0.2"></line><text x="50" y="840" class="small">100</text><line x1="50" y1="810" x2="550" y2="810" class="thinLine" stroke-opacity="0.2"></line><text x="50" y="810" class="small">1000</text><line x1="50" y1="780" x2="550" y2="780" class="thinLine" stroke-opacity="0.2"></line><text x="50" y="780" class="small">10000</text><line x1="50" y1="750" x2="550" y2="750" class="thinLine" stroke-opacity="0.2"></line><text x="50" y="750" class="small">100000</text><line x1="50" y1="720" x2="550" y2="720" class="thinLine" stroke-opacity="0.2"></line><text x="50" y="720" class="small">1000000</text><line x1="50" y1="690" x2="550" y2="690" class="thinLine" stroke-opacity="0.2"></line><text x="50" y="690" class="small">10000000</text><line x1="50" y1="660" x2="550" y2="660" class="thinLine" stroke-opacity="0.2"></line><text x="50" y="660" class="small">100000000</text><line x1="50" y1="630" x2="550" y2="630" class="thinLine" stroke-opacity="0.2"></line><text x="50" y="630" class="small">1000000000</text><line x1="50" y1="600" x2="550" y2="600" class="thinLine" stroke-opacity="0.2"></line><text x="50" y="600" class="small">10000000000</text><text x="381" y="916" class="txt" font-family="sans-serif">19</text><line x1="381" y1="900" x2="381" y2="626.7538983659999" class="timeLineLine lineWord" stroke-width="39.69"></line><line x1="391" y1="900" x2="391" y2="727.29027" class="timeLineLine lineTitle" stroke-width="12.25"></line>123<line x1="50" y1="900" x2="550" y2="900" class="thinLine" stroke-opacity="0.2"></line><text x="50" y="900" class="small">0</text><line x1="50" y1="870" x2="550" y2="870" class="thinLine" stroke-opacity="0.2"></line><text x="50" y="870" class="small">10</text><line x1="50" y1="840" x2="550" y2="840" class="thinLine" stroke-opacity="0.2"></line><text x="50" y="840" class="small">100</text><line x1="50" y1="810" x2="550" y2="810" class="thinLine" stroke-opacity="0.2"></line><text x="50" y="810" class="small">1000</text><line x1="50" y1="780" x2="550" y2="780" class="thinLine" stroke-opacity="0.2"></line><text x="50" y="780" class="small">10000</text><line x1="50" y1="750" x2="550" y2="750" class="thinLine" stroke-opacity="0.2"></line><text x="50" y="750" class="small">100000</text><line x1="50" y1="720" x2="550" y2="720" class="thinLine" stroke-opacity="0.2"></line><text x="50" y="720" class="small">1000000</text><line x1="50" y1="690" x2="550" y2="690" class="thinLine" stroke-opacity="0.2"></line><text x="50" y="690" class="small">10000000</text><line x1="50" y1="660" x2="550" y2="660" class="thinLine" stroke-opacity="0.2"></line><text x="50" y="660" class="small">100000000</text><line x1="50" y1="630" x2="550" y2="630" class="thinLine" stroke-opacity="0.2"></line><text x="50" y="630" class="small">1000000000</text><line x1="50" y1="600" x2="550" y2="600" class="thinLine" stroke-opacity="0.2"></line><text x="50" y="600" class="small">10000000000</text><text x="424" y="916" class="txt" font-family="sans-serif">19</text><line x1="424" y1="900" x2="424" y2="610.313060988" class="timeLineLine lineWord" stroke-width="39.69"></line><line x1="434" y1="900" x2="434" y2="686.4676944" class="timeLineLine lineTitle" stroke-width="24.009999999999994"></line>123<line x1="50" y1="900" x2="550" y2="900" class="thinLine" stroke-opacity="0.2"></line><text x="50" y="900" class="small">0</text><line x1="50" y1="870" x2="550" y2="870" class="thinLine" stroke-opacity="0.2"></line><text x="50" y="870" class="small">10</text><line x1="50" y1="840" x2="550" y2="840" class="thinLine" stroke-opacity="0.2"></line><text x="50" y="840" class="small">100</text><line x1="50" y1="810" x2="550" y2="810" class="thinLine" stroke-opacity="0.2"></line><text x="50" y="810" class="small">1000</text><line x1="50" y1="780" x2="550" y2="780" class="thinLine" stroke-opacity="0.2"></line><text x="50" y="780" class="small">10000</text><line x1="50" y1="750" x2="550" y2="750" class="thinLine" stroke-opacity="0.2"></line><text x="50" y="750" class="small">100000</text><line x1="50" y1="720" x2="550" y2="720" class="thinLine" stroke-opacity="0.2"></line><text x="50" y="720" class="small">1000000</text><line x1="50" y1="690" x2="550" y2="690" class="thinLine" stroke-opacity="0.2"></line><text x="50" y="690" class="small">10000000</text><line x1="50" y1="660" x2="550" y2="660" class="thinLine" stroke-opacity="0.2"></line><text x="50" y="660" class="small">100000000</text><line x1="50" y1="630" x2="550" y2="630" class="thinLine" stroke-opacity="0.2"></line><text x="50" y="630" class="small">1000000000</text><line x1="50" y1="600" x2="550" y2="600" class="thinLine" stroke-opacity="0.2"></line><text x="50" y="600" class="small">10000000000</text><text x="467" y="916" class="txt" font-family="sans-serif">20</text><line x1="467" y1="900" x2="467" y2="890" class="timeLineLine lineWord" stroke-width="2"></line><line x1="477" y1="900" x2="477" y2="681.9442799999999" class="timeLineLine lineTitle" stroke-width="24.009999999999994"></line>123<line x1="50" y1="900" x2="550" y2="900" class="thinLine" stroke-opacity="0.2"></line><text x="50" y="900" class="small">0</text><line x1="50" y1="870" x2="550" y2="870" class="thinLine" stroke-opacity="0.2"></line><text x="50" y="870" class="small">10</text><line x1="50" y1="840" x2="550" y2="840" class="thinLine" stroke-opacity="0.2"></line><text x="50" y="840" class="small">100</text><line x1="50" y1="810" x2="550" y2="810" class="thinLine" stroke-opacity="0.2"></line><text x="50" y="810" class="small">1000</text><line x1="50" y1="780" x2="550" y2="780" class="thinLine" stroke-opacity="0.2"></line><text x="50" y="780" class="small">10000</text><line x1="50" y1="750" x2="550" y2="750" class="thinLine" stroke-opacity="0.2"></line><text x="50" y="750" class="small">100000</text><line x1="50" y1="720" x2="550" y2="720" class="thinLine" stroke-opacity="0.2"></line><text x="50" y="720" class="small">1000000</text><line x1="50" y1="690" x2="550" y2="690" class="thinLine" stroke-opacity="0.2"></line><text x="50" y="690" class="small">10000000</text><line x1="50" y1="660" x2="550" y2="660" class="thinLine" stroke-opacity="0.2"></line><text x="50" y="660" class="small">100000000</text><line x1="50" y1="630" x2="550" y2="630" class="thinLine" stroke-opacity="0.2"></line><text x="50" y="630" class="small">1000000000</text><line x1="50" y1="600" x2="550" y2="600" class="thinLine" stroke-opacity="0.2"></line><text x="50" y="600" class="small">10000000000</text><text x="510" y="916" class="txt" font-family="sans-serif">21</text><line x1="510" y1="900" x2="510" y2="641.04198624" class="timeLineLine lineWord" stroke-width="31.359999999999996"></line><line x1="520" y1="900" x2="520" y2="714.032868" class="timeLineLine lineTitle" stroke-width="17.639999999999993"></line></g>


    </svg>
